<svg width="860" height="680" viewBox="0 0 860 680" fill="none" xmlns="http://www.w3.org/2000/svg">
<path d="M429.523 0L831.076 307.643H27.9689L429.523 0Z" fill="#FF9DAE"/>
<path d="M26 121H830V679H26V121Z" fill="white"/>
<path d="M26 121H830V679H26V121Z" fill="white"/>
<path d="M696 171H796" stroke="black" stroke-width="2"/>
<path d="M60 171H160" stroke="black" stroke-width="2"/>
<path d="M205.422 167.226V171.678H190.834V158.63H205.422V162.802H208.67V158.35H213.402V174.674H208.67V167.226H205.422ZM200.746 167.73V162.578H195.51V167.73H200.746ZM214.466 178.342L212.842 182.542L202.426 178.762C199.682 181.086 195.762 182.262 191.786 182.262V177.838C196.266 177.838 200.242 175.934 201.138 172.574L205.87 173.414C205.674 174.114 205.422 174.758 205.114 175.374L214.466 178.342ZM223.676 167.898C222.22 170.138 219.952 171.594 217.096 171.678V167.59C219.252 167.338 220.68 165.238 221.016 162.494H217.46V158.63H228.912V162.494H225.468C225.412 163.026 225.356 163.53 225.244 164.034L230.116 168.178V158.462H234.484V162.41H236.472V158.35H240.896V172.266H236.472V166.722H234.484V171.482H230.116V168.598L227.484 171.286L223.676 167.898ZM229.892 172.294C236.164 172.294 241.12 173.638 241.12 177.418C241.12 181.198 236.164 182.542 229.892 182.542C223.62 182.542 218.664 181.198 218.664 177.418C218.664 173.638 223.62 172.294 229.892 172.294ZM229.892 178.818C233.28 178.818 236.08 178.482 236.08 177.418C236.08 176.382 233.28 176.018 229.892 176.018C226.504 176.018 223.704 176.382 223.704 177.418C223.704 178.482 226.504 178.818 229.892 178.818ZM267.157 158.35V182.262H262.425V158.35H267.157ZM252.261 158.63C256.769 158.63 259.765 162.158 259.765 170.026C259.765 177.894 256.769 181.422 252.261 181.422C247.753 181.422 244.729 177.894 244.729 170.026C244.729 162.158 247.753 158.63 252.261 158.63ZM252.261 162.97C250.665 162.97 249.405 164.678 249.405 170.026C249.405 175.402 250.665 177.082 252.261 177.082C253.829 177.082 255.089 175.402 255.089 170.026C255.089 164.678 253.829 162.97 252.261 162.97ZM296.219 167.086V171.678H293.419V182.262H288.687V158.35H293.419V167.086H296.219ZM282.191 158.994C282.191 162.606 281.855 165.854 281.267 168.654L288.183 178.398L284.319 181.114L279.559 174.142C277.599 178.622 274.603 181.114 270.963 181.142V176.27C274.799 175.822 277.347 168.822 277.375 158.826L282.191 158.994ZM323.153 167.086V171.678H320.353V182.262H315.621V158.35H320.353V167.086H323.153ZM308.789 163.25C308.733 165.406 308.537 167.422 308.201 169.242L315.033 178.258L311.281 181.03L306.577 174.562C304.645 178.734 301.649 181.114 298.065 181.142V176.382C301.565 175.99 303.861 170.922 304.029 163.25H298.737V158.91H313.801V163.25H308.789ZM335.834 165.574C335.75 167.142 335.582 168.626 335.33 169.97L342.134 178.174L338.466 181.086L333.678 174.982C331.746 178.902 328.694 181.114 325.11 181.142V176.494C328.554 176.158 330.766 171.818 331.074 165.574H325.642V161.206H331.046V158.266H335.89V161.206H340.986V165.574H335.834ZM343.338 158.35H348.07V182.262H343.338V172.098H339.334V167.618H343.338V158.35ZM370.272 158.35H375.004V172.294H370.272V166.218H367.304V161.878H370.272V158.35ZM352.436 163.586H361.564V162.214H352.38V158.63H366.24V166.918H357.112V168.29H362.656C364.812 168.29 366.912 168.01 368.172 167.506V171.034C366.94 171.566 364.7 171.874 362.46 171.874H352.436V163.586ZM353.612 182.262V173.134H375.004V182.262H353.612ZM358.316 176.83V178.566H370.3V176.83H358.316ZM405.137 171.51V169.326H402.589V165.294H405.137V163.67H402.589V159.638H405.137V158.35H409.785V171.51H405.137ZM401.469 158.63V170.558H387.217V158.63H401.469ZM396.821 166.666V162.522H391.865V166.666H396.821ZM399.089 171.846C405.193 171.846 410.009 173.218 410.009 177.194C410.009 181.17 405.193 182.542 399.089 182.542C392.985 182.542 388.169 181.17 388.169 177.194C388.169 173.218 392.985 171.846 399.089 171.846ZM399.089 178.762C402.309 178.762 404.913 178.342 404.913 177.194C404.913 176.074 402.309 175.626 399.089 175.626C395.869 175.626 393.265 176.074 393.265 177.194C393.265 178.342 395.869 178.762 399.089 178.762ZM431.875 158.35H436.607V182.262H431.875V158.35ZM424.735 163.25C424.679 165.406 424.483 167.394 424.147 169.214L431.091 178.23L427.339 181.03L422.523 174.478C420.591 178.734 417.539 181.114 413.899 181.142V176.382C417.399 175.99 419.807 170.922 419.975 163.25H414.571V158.91H429.859V163.25H424.735ZM459.788 158.35H464.212V182.262H459.788V171.622H457.8V181.842H453.432V158.462H457.8V167.142H459.788V158.35ZM445.396 176.998H446.74C448.616 176.998 450.856 176.718 452.312 176.186V180.274C450.884 180.862 448.336 181.142 446.32 181.142H440.832V158.91H451.276V163.054H445.396V176.998ZM472.022 182.962C468.83 179.546 466.758 175.458 466.758 170.278C466.758 165.098 468.83 161.01 472.022 157.594H477.034C473.842 160.926 471.63 165.238 471.63 170.278C471.63 175.318 473.842 179.63 477.034 182.962H472.022ZM504.059 167.086V171.678H501.259V182.262H496.527V158.35H501.259V167.086H504.059ZM489.695 163.25C489.639 165.406 489.443 167.422 489.107 169.242L495.939 178.258L492.187 181.03L487.483 174.562C485.551 178.734 482.555 181.114 478.971 181.142V176.382C482.471 175.99 484.767 170.922 484.935 163.25H479.643V158.91H494.707V163.25H489.695ZM521.696 166.638H524.328V164.37H521.696L521.416 160.198H524.328V158.35H528.976V176.074H524.328V170.81H521.416L521.696 166.638ZM520.968 165.546C520.968 169.886 517.86 172.714 513.268 172.714C508.676 172.714 505.568 169.886 505.568 165.546C505.568 161.234 508.676 158.378 513.268 158.378C517.86 158.378 520.968 161.234 520.968 165.546ZM510.244 165.546C510.244 167.618 511.476 168.766 513.268 168.766C515.06 168.766 516.292 167.618 516.292 165.546C516.292 163.474 515.06 162.326 513.268 162.326C511.476 162.326 510.244 163.474 510.244 165.546ZM512.68 178.034H529.312V182.262H507.864V173.89H512.68V178.034ZM536.702 182.962H531.69C534.882 179.63 537.094 175.318 537.094 170.278C537.094 165.238 534.882 160.926 531.69 157.594H536.702C539.894 161.01 541.966 165.098 541.966 170.278C541.966 175.458 539.894 179.546 536.702 182.962ZM560.543 159.05V181.87H555.475V163.474H551.443V159.05H560.543ZM572.908 158.434C578.032 158.434 581.056 161.458 581.056 165.602C581.056 167.982 579.908 170.026 575.904 174.17L572.628 177.558H581.504V181.87H565.18V178.958L572.656 171.258C575.4 168.43 576.044 166.946 576.044 165.658C576.044 163.978 575.12 162.858 572.908 162.858C570.836 162.858 569.716 164.538 569.716 166.274H564.704C564.704 161.794 568.092 158.434 572.908 158.434ZM607.067 158.35V182.262H602.335V158.35H607.067ZM598.639 158.91V165.378C598.639 175.094 593.235 181.142 584.863 181.142V176.662C590.659 176.606 593.795 172.294 593.795 165.378V163.222H584.863V158.91H598.639ZM633.225 176.998H642.913V181.422H618.721V176.998H628.409V173.134H620.037V158.91H641.597V173.134H633.225V176.998ZM624.741 163.334V168.738H636.893V163.334H624.741ZM664.05 158.35H668.782V170.726H664.05V158.35ZM654.362 167.198C652.486 169.242 649.602 170.754 646.186 170.838V166.722C649.266 166.554 651.31 164.538 651.87 162.522H646.522V158.63H661.978V162.522H656.686C656.63 162.942 656.518 163.362 656.406 163.81L662.79 167.086L660.662 170.586L654.362 167.198ZM664.134 173.134V171.566H668.782V182.262H647.39V171.566H652.038V173.134H664.134ZM652.038 178.51H664.134V176.802H652.038V178.51Z" fill="black"/>
<path d="M-7.97146e-07 283.984L28.3365 302.14L28.3365 265.827L-7.97146e-07 283.984Z" fill="#9E4B58"/>
<path d="M860 284.979L831.663 303.136L831.663 266.823L860 284.979Z" fill="#9E4B58"/>
<path fill-rule="evenodd" clip-rule="evenodd" d="M228.003 680L427.525 564.125L1.73015e-05 283.748L0 680H228.003Z" fill="#DB627B"/>
<path fill-rule="evenodd" clip-rule="evenodd" d="M626.425 680L429.522 565.61L859.428 283.58L859.428 680H626.425Z" fill="#DB627B"/>
<path d="M429.522 418.155L859.045 680H0L429.522 418.155Z" fill="#FF9DAE"/>
<path d="M362.592 501.858C353.225 491.121 350.332 475.942 354.548 459.661C358.764 443.379 369.745 427.329 385.074 415.04C400.403 402.752 418.826 395.231 436.288 394.134C453.751 393.037 468.824 398.452 478.19 409.189L442.749 437.6C439.126 433.447 433.296 431.352 426.541 431.777C419.786 432.201 412.659 435.11 406.73 439.863C400.8 444.617 396.552 450.826 394.921 457.124C393.29 463.422 394.41 469.294 398.033 473.447L362.592 501.858Z" fill="#A14F4F"/>
<path d="M423.802 416.942C433.695 409.012 445.094 403.239 456.555 400.353C468.017 397.468 479.028 397.601 488.195 400.734C497.362 403.867 504.273 409.86 508.056 417.956C511.838 426.051 512.321 435.885 509.444 446.214L474.988 448.964C476.101 444.968 475.914 441.164 474.451 438.033C472.988 434.901 470.314 432.583 466.768 431.371C463.222 430.159 458.963 430.108 454.529 431.224C450.095 432.34 445.686 434.573 441.859 437.641L423.802 416.942Z" fill="#A14F4F"/>
<g filter="url(#filter0_d_343_185)">
<path d="M503.562 423.997C509.43 430.722 511.775 440.014 510.303 450.698C508.83 461.381 503.605 472.976 495.289 484.016C486.973 495.057 475.939 505.046 463.583 512.722C451.226 520.398 438.102 525.415 425.87 527.14L438.068 492.306C442.8 491.639 447.876 489.698 452.656 486.729C457.436 483.76 461.704 479.896 464.921 475.625C468.138 471.354 470.159 466.869 470.729 462.736C471.298 458.604 470.391 455.009 468.121 452.408L503.562 423.997Z" fill="#A14F4F"/>
</g>
<ellipse cx="51.1594" cy="53.1485" rx="51.1594" ry="53.1485" transform="matrix(0.823868 0.554957 -0.595343 0.812154 428.308 388.218)" fill="#A14F4F"/>
<g filter="url(#filter1_d_343_185)">
<path d="M483.101 482.545C487.952 492.127 488.692 501.574 485.226 509.692C481.761 517.81 474.246 524.234 463.632 528.151C453.018 532.069 439.781 533.305 425.596 531.702C411.411 530.099 396.915 525.73 383.94 519.147L402.895 497.546C407.914 500.093 413.522 501.783 419.009 502.403C424.496 503.023 429.617 502.545 433.722 501.029C437.828 499.514 440.735 497.029 442.076 493.889C443.416 490.748 443.13 487.094 441.254 483.388L483.101 482.545Z" fill="#A14F4F"/>
</g>
<path d="M454.245 505.241C442.6 514.576 429.417 521.638 416.363 525.534C403.309 529.43 390.97 529.985 380.907 527.13C370.843 524.274 363.506 518.135 359.825 509.49C356.144 500.846 356.283 490.082 360.225 478.562L399.058 473.351C397.533 477.807 397.479 481.971 398.903 485.315C400.327 488.659 403.165 491.033 407.058 492.138C410.951 493.243 415.724 493.028 420.774 491.521C425.823 490.014 430.923 487.282 435.427 483.671L454.245 505.241Z" fill="#A14F4F"/>
<g filter="url(#filter2_i_343_185)">
<ellipse cx="41.6302" cy="52.5101" rx="41.6302" ry="52.5101" transform="matrix(-0.669931 -0.727145 0.772039 -0.653615 422.405 527.851)" fill="#843C3C"/>
</g>
<g filter="url(#filter3_i_343_185)">
<path d="M426.725 466.233L405.97 456.193L423.821 452.587L426.725 466.233Z" fill="#572222"/>
<path d="M443.838 462.962L458.781 445.551L440.617 449.382L443.838 462.962Z" fill="#572222"/>
<rect width="2.8516" height="24.8946" transform="matrix(0.979398 -0.201938 0.218937 0.975739 423.377 452.736)" fill="#572222"/>
<rect width="5.14461" height="21.7435" transform="matrix(-0.218937 -0.975739 0.979398 -0.201938 429.535 480.096)" fill="#572222"/>
</g>
<path d="M250.12 226H253.5V243.08H250.12V226ZM245.02 229.5C244.98 231.04 244.84 232.46 244.6 233.76L249.56 240.2L246.88 242.2L243.44 237.52C242.06 240.56 239.88 242.26 237.28 242.28V238.88C239.78 238.6 241.5 234.98 241.62 229.5H237.76V226.4H248.68V229.5H245.02ZM262.298 232.78C259.218 232.78 257.058 231.62 257.058 229.3C257.058 226.98 259.218 225.82 262.298 225.82C265.378 225.82 267.538 226.98 267.538 229.3C267.538 231.62 265.378 232.78 262.298 232.78ZM265.078 236.44H269.478V226H272.858V239.26H269.478V238.78H265.078V236.44ZM262.298 228.3C261.098 228.3 260.318 228.62 260.318 229.3C260.318 229.98 261.098 230.3 262.298 230.3C263.498 230.3 264.278 229.98 264.278 229.3C264.278 228.62 263.498 228.3 262.298 228.3ZM260.958 240.26H273.098V243.08H257.578V237.66H260.298V235.96H256.218V233.36H264.078C265.658 233.36 267.438 233.2 268.498 232.74V235.34C267.438 235.8 265.718 235.96 264.018 235.96H263.658V238.54H260.958V240.26ZM297.582 226V243.08H294.202V226H297.582ZM291.562 226.4V231.02C291.562 237.96 287.702 242.28 281.722 242.28V239.08C285.862 239.04 288.102 235.96 288.102 231.02V229.48H281.722V226.4H291.562ZM316.34 229.4H318.34V232.68H316.34V238.64H312.96V226H316.34V229.4ZM310.78 228.94C310.78 233.9 306.46 236.26 300.6 236.26V233.28C304.58 233.24 307.34 231.8 307.34 229.5V229.12H300.6V226.2H310.78V228.94ZM304.7 237.16V240.04H316.58V243.08H301.26V237.16H304.7ZM243.1 268.5V284.8H239.48V271.66H236.6V268.5H243.1ZM254.252 273.16C254.192 274.28 254.072 275.34 253.892 276.3L258.692 282.08L256.172 284.28L252.712 279.88C251.332 282.68 249.152 284.26 246.592 284.28V280.96C249.052 280.72 250.632 277.62 250.852 273.16H246.972V270.04H250.832V267.94H254.292V270.04H257.952V273.16H254.252ZM264.512 274.24V277.52H262.512V285.08H259.132V268H262.512V274.24H264.512ZM282.836 269V271.44H271.156V269H275.276V267.7H278.716V269H282.836ZM289.356 270.9V274.06H287.356V277.66H283.976V268H287.356V270.9H289.356ZM276.996 277.94C274.176 277.94 271.796 276.9 271.796 274.9C271.796 272.9 274.176 271.86 276.996 271.86C279.816 271.86 282.176 272.9 282.176 274.9C282.176 276.9 279.816 277.94 276.996 277.94ZM276.996 274.16C275.776 274.16 274.976 274.42 274.976 274.9C274.976 275.38 275.776 275.64 276.996 275.64C278.216 275.64 279.016 275.38 279.016 274.9C279.016 274.42 278.216 274.16 276.996 274.16ZM284.076 279.22V278.26H287.356V285.08H272.276V278.26H275.556V279.22H284.076ZM275.556 282.56H284.076V281.6H275.556V282.56ZM303.814 268H307.154V278.16H303.814V276.8H301.174V273.86H303.814V272.48H301.834V269.54H303.814V268ZM301.034 270.68C301.034 275.68 296.774 277.86 290.954 277.86V274.92C294.954 274.88 297.594 273.62 297.594 271.34V271.08H290.954V268.2H301.034V270.68ZM291.794 281.66V278.76H307.154V285.28H303.714V281.66H291.794ZM327.833 274.24V277.52H325.833V285.08H322.453V268H325.833V274.24H327.833ZM317.573 271.5C317.533 273.04 317.393 274.48 317.153 275.78L322.033 282.22L319.353 284.2L315.993 279.58C314.613 282.56 312.473 284.26 309.913 284.28V280.88C312.413 280.6 314.053 276.98 314.173 271.5H310.393V268.4H321.153V271.5H317.573ZM351.156 268V277.18H347.776V268H351.156ZM345.796 268.2V276.2H335.196V268.2H345.796ZM342.456 273.46V270.94H338.536V273.46H342.456ZM351.736 282.56L350.876 285.28L343.316 283.3C341.396 284.58 338.556 285.08 335.716 285.08V282.32C338.216 282.32 340.616 281.84 341.716 280.7H335.896V277.98H341.796V276.82H345.236V277.98H351.156V280.7H345.416L345.236 281.12L351.736 282.56ZM372.76 280.66V276.54H370.94V273.56H372.76V272.22H370.94V269.24H372.76V268H376.08V280.66H372.76ZM370.14 268.2V277.92H359.96V268.2H370.14ZM366.82 275.06V271.06H363.28V275.06H366.82ZM364.24 282.06H376.32V285.08H360.8V279.1H364.24V282.06ZM391.938 268H395.318V277H391.938V273.38H389.658V270.98H386.438C386.398 271.32 386.318 271.66 386.218 272L390.758 274.46L389.198 276.94L384.798 274.44C383.478 275.96 381.438 277.06 379.018 277.12V274.18C381.198 274.06 382.638 272.5 382.998 270.98H379.258V268.2H390.138V270.54H391.938V268ZM391.998 278.7V277.6H395.318V285.08H380.038V277.6H383.358V278.7H391.998ZM383.358 282.44H391.998V281.28H383.358V282.44ZM414.477 268V276.36H411.097V268H414.477ZM403.557 268.02C406.917 268.02 409.057 269.7 409.057 272.16C409.057 274.64 406.917 276.3 403.557 276.3C400.197 276.3 398.057 274.64 398.057 272.16C398.057 269.7 400.197 268.02 403.557 268.02ZM403.557 270.68C402.257 270.68 401.397 271.26 401.397 272.16C401.397 273.06 402.257 273.64 403.557 273.64C404.857 273.64 405.717 273.06 405.717 272.16C405.717 271.26 404.857 270.68 403.557 270.68ZM414.477 276.96V282.06H402.757V282.74H414.657V285.08H399.417V279.98H411.137V279.3H399.377V276.96H414.477ZM435.6 273.74V270.74H423.8V268H439V273.74H435.6ZM431.84 274.54H440.08V277.24H422.8V274.54H428.44V272H431.84V274.54ZM431.44 278.12C436.04 278.12 439.24 279.12 439.24 281.7C439.24 284.28 436.04 285.28 431.44 285.28C426.84 285.28 423.64 284.28 423.64 281.7C423.64 279.12 426.84 278.12 431.44 278.12ZM431.44 282.72C433.92 282.72 435.64 282.4 435.64 281.7C435.64 281.02 433.92 280.68 431.44 280.68C428.96 280.68 427.24 281.02 427.24 281.7C427.24 282.4 428.96 282.72 431.44 282.72ZM455.179 268H458.559V285.08H455.179V268ZM450.079 271.5C450.039 273.04 449.899 274.46 449.659 275.76L454.619 282.2L451.939 284.2L448.499 279.52C447.119 282.56 444.939 284.26 442.339 284.28V280.88C444.839 280.6 446.559 276.98 446.679 271.5H442.819V268.4H453.739V271.5H450.079ZM250.26 322.66V318.54H248.44V315.56H250.26V314.22H248.44V311.24H250.26V310H253.58V322.66H250.26ZM247.64 310.2V319.92H237.46V310.2H247.64ZM244.32 317.06V313.06H240.78V317.06H244.32ZM241.74 324.06H253.82V327.08H238.3V321.1H241.74V324.06ZM269.438 310H272.818V319H269.438V315.38H267.158V312.98H263.938C263.898 313.32 263.818 313.66 263.718 314L268.258 316.46L266.698 318.94L262.298 316.44C260.978 317.96 258.938 319.06 256.518 319.12V316.18C258.698 316.06 260.138 314.5 260.498 312.98H256.758V310.2H267.638V312.54H269.438V310ZM269.498 320.7V319.6H272.818V327.08H257.538V319.6H260.858V320.7H269.498ZM260.858 324.44H269.498V323.28H260.858V324.44ZM291.977 310V318.36H288.597V310H291.977ZM281.057 310.02C284.417 310.02 286.557 311.7 286.557 314.16C286.557 316.64 284.417 318.3 281.057 318.3C277.697 318.3 275.557 316.64 275.557 314.16C275.557 311.7 277.697 310.02 281.057 310.02ZM281.057 312.68C279.757 312.68 278.897 313.26 278.897 314.16C278.897 315.06 279.757 315.64 281.057 315.64C282.357 315.64 283.217 315.06 283.217 314.16C283.217 313.26 282.357 312.68 281.057 312.68ZM291.977 318.96V324.06H280.257V324.74H292.157V327.08H276.917V321.98H288.637V321.3H276.877V318.96H291.977ZM243.08 360.2C241.78 361.86 239.76 362.96 237.28 363V359.98C239.26 359.86 240.68 358.42 241.14 356.54H237.64V353.5H241.2V351.78H244.64V353.5H248.2V356.54H244.62C244.58 356.9 244.5 357.24 244.4 357.58L249.04 360.52L247.22 362.98L243.08 360.2ZM250.16 352H253.54V369.08H250.16V352ZM244.54 365.18H244.76C246.34 365.18 248.12 364.98 249.18 364.5V367.6C248.12 368.08 246.4 368.28 244.7 368.28H236.98V365.18H241.18V362.64H244.54V365.18ZM272.198 358.72L264.358 356.96C262.478 358 259.798 358.6 256.998 358.64V356.02C259.358 355.98 261.878 355.48 262.958 354.58H257.198V352H272.518V354.58H266.698C266.658 354.68 266.618 354.78 266.558 354.88L272.958 356.2L272.198 358.72ZM266.538 359.36H273.498V361.96H256.218V359.36H263.178V357.9H266.538V359.36ZM264.858 362.56C269.478 362.56 272.698 363.48 272.698 365.94C272.698 368.4 269.478 369.32 264.858 369.32C260.238 369.32 257.018 368.4 257.018 365.94C257.018 363.48 260.238 362.56 264.858 362.56ZM264.858 366.8C267.358 366.8 269.098 366.56 269.098 365.94C269.098 365.34 267.358 365.08 264.858 365.08C262.358 365.08 260.618 365.34 260.618 365.94C260.618 366.56 262.358 366.8 264.858 366.8ZM292.582 353V355.44H280.902V353H285.022V351.7H288.462V353H292.582ZM299.102 354.9V358.06H297.102V361.66H293.722V352H297.102V354.9H299.102ZM286.742 361.94C283.922 361.94 281.542 360.9 281.542 358.9C281.542 356.9 283.922 355.86 286.742 355.86C289.562 355.86 291.922 356.9 291.922 358.9C291.922 360.9 289.562 361.94 286.742 361.94ZM286.742 358.16C285.522 358.16 284.722 358.42 284.722 358.9C284.722 359.38 285.522 359.64 286.742 359.64C287.962 359.64 288.762 359.38 288.762 358.9C288.762 358.42 287.962 358.16 286.742 358.16ZM293.822 363.22V362.26H297.102V369.08H282.022V362.26H285.302V363.22H293.822ZM285.302 366.56H293.822V365.6H285.302V366.56ZM313.56 352H316.9V362.16H313.56V360.8H310.92V357.86H313.56V356.48H311.58V353.54H313.56V352ZM310.78 354.68C310.78 359.68 306.52 361.86 300.7 361.86V358.92C304.7 358.88 307.34 357.62 307.34 355.34V355.08H300.7V352.2H310.78V354.68ZM301.54 365.66V362.76H316.9V369.28H313.46V365.66H301.54ZM337.579 358.24V361.52H335.579V369.08H332.199V352H335.579V358.24H337.579ZM327.319 355.5C327.279 357.04 327.139 358.48 326.899 359.78L331.779 366.22L329.099 368.2L325.739 363.58C324.359 366.56 322.219 368.26 319.659 368.28V364.88C322.159 364.6 323.799 360.98 323.919 355.5H320.139V352.4H330.899V355.5H327.319ZM360.422 354.4H362.422V357.48H360.422V360.56H357.042V352H360.422V354.4ZM355.182 352.2V360.2H344.762V352.2H348.042V353.6H351.902V352.2H355.182ZM348.042 357.58H351.902V356.16H348.042V357.58ZM348.682 366.16V366.82H360.602V369.08H345.362V364.08H357.102V363.42H345.322V361.16H360.422V366.16H348.682ZM377.221 365.4H380.901V368.48H363.621V365.4H367.301V362.58H364.401V359.52H367.001V355.48H364.581V352.4H379.941V355.48H377.521V359.52H380.121V362.58H377.221V365.4ZM370.381 355.48V359.52H374.141V355.48H370.381ZM370.681 362.58V365.4H373.841V362.58H370.681Z" fill="black"/>
<path d="M524.623 243.02C521.183 243.02 519.063 240.94 518.943 238.14H521.023C521.083 239.86 522.363 241.2 524.623 241.2C526.863 241.2 528.203 239.92 528.203 238.32C528.203 236.52 526.763 235.46 524.343 235.46H522.583V233.72H524.343C526.383 233.72 527.763 232.56 527.763 230.9C527.763 229.34 526.523 228.06 524.403 228.06C522.243 228.06 521.063 229.58 521.063 231.28H518.963C518.963 228.46 521.123 226.26 524.403 226.26C527.703 226.26 529.843 228.32 529.843 230.84C529.843 232.8 528.463 234.16 526.983 234.52C528.603 234.82 530.263 236.08 530.263 238.3C530.263 240.98 527.983 243.02 524.623 243.02ZM533.947 244H531.867L539.187 225.3H541.267L533.947 244ZM546.111 242.66V228.48H542.791V226.64H548.211V242.66H546.111ZM557.76 233.86C558.34 233.3 559.16 232.98 560.18 232.98C561.9 232.98 563.14 234.42 564.62 234.42C565.58 234.42 566.2 233.9 566.84 233.12V235.14C566.26 235.84 565.48 236.26 564.42 236.26C562.7 236.26 561.46 234.82 559.96 234.82C559.02 234.82 558.38 235.2 557.76 235.86V233.86ZM580.209 243.02C576.769 243.02 574.649 240.94 574.529 238.14H576.609C576.669 239.86 577.949 241.2 580.209 241.2C582.449 241.2 583.789 239.92 583.789 238.32C583.789 236.52 582.349 235.46 579.929 235.46H578.169V233.72H579.929C581.969 233.72 583.349 232.56 583.349 230.9C583.349 229.34 582.109 228.06 579.989 228.06C577.829 228.06 576.649 229.58 576.649 231.28H574.549C574.549 228.46 576.709 226.26 579.989 226.26C583.289 226.26 585.429 228.32 585.429 230.84C585.429 232.8 584.049 234.16 582.569 234.52C584.189 234.82 585.849 236.08 585.849 238.3C585.849 240.98 583.569 243.02 580.209 243.02ZM589.533 244H587.453L594.773 225.3H596.853L589.533 244ZM600.177 242.66L606.697 228.48H598.137V226.64H609.117V228.04L602.397 242.66H600.177ZM552.113 285.02C548.673 285.02 546.553 282.94 546.433 280.14H548.513C548.573 281.86 549.853 283.2 552.113 283.2C554.353 283.2 555.693 281.92 555.693 280.32C555.693 278.52 554.253 277.46 551.833 277.46H550.073V275.72H551.833C553.873 275.72 555.253 274.56 555.253 272.9C555.253 271.34 554.013 270.06 551.893 270.06C549.733 270.06 548.553 271.58 548.553 273.28H546.453C546.453 270.46 548.613 268.26 551.893 268.26C555.193 268.26 557.333 270.32 557.333 272.84C557.333 274.8 555.953 276.16 554.473 276.52C556.093 276.82 557.753 278.08 557.753 280.3C557.753 282.98 555.473 285.02 552.113 285.02ZM561.437 286H559.357L566.677 267.3H568.757L561.437 286ZM575.727 285.02C572.367 285.02 570.047 283.14 570.047 280.46C570.047 278.04 571.967 276.7 573.407 276.36C572.167 275.98 570.607 274.68 570.607 272.64C570.607 270.24 572.667 268.26 575.727 268.26C578.767 268.26 580.827 270.26 580.827 272.64C580.827 274.68 579.267 275.98 578.027 276.36C579.487 276.7 581.387 278.04 581.387 280.46C581.387 283.14 579.067 285.02 575.727 285.02ZM575.727 275.42C577.547 275.42 578.827 274.22 578.827 272.7C578.827 271.22 577.607 270.02 575.727 270.02C573.847 270.02 572.627 271.18 572.627 272.66C572.627 274.2 573.907 275.42 575.727 275.42ZM575.727 283.26C577.927 283.26 579.347 282 579.347 280.34C579.347 278.66 577.807 277.36 575.727 277.36C573.627 277.36 572.087 278.66 572.087 280.34C572.087 282 573.507 283.26 575.727 283.26ZM512.757 327.02C509.317 327.02 507.197 324.94 507.077 322.14H509.157C509.217 323.86 510.497 325.2 512.757 325.2C514.997 325.2 516.337 323.92 516.337 322.32C516.337 320.52 514.897 319.46 512.477 319.46H510.717V317.72H512.477C514.517 317.72 515.897 316.56 515.897 314.9C515.897 313.34 514.657 312.06 512.537 312.06C510.377 312.06 509.197 313.58 509.197 315.28H507.097C507.097 312.46 509.257 310.26 512.537 310.26C515.837 310.26 517.977 312.32 517.977 314.84C517.977 316.8 516.597 318.16 515.117 318.52C516.737 318.82 518.397 320.08 518.397 322.3C518.397 324.98 516.117 327.02 512.757 327.02ZM522.081 328H520.001L527.321 309.3H529.401L522.081 328ZM534.246 326.66V312.48H530.926V310.64H536.346V326.66H534.246ZM546.009 327.02C542.629 327.02 540.089 324.24 540.089 318.64C540.089 313.04 542.629 310.26 546.009 310.26C549.369 310.26 551.909 313.04 551.909 318.64C551.909 324.24 549.369 327.02 546.009 327.02ZM546.009 325.16C548.169 325.16 549.889 323 549.889 318.64C549.889 314.3 548.169 312.12 546.009 312.12C543.829 312.12 542.109 314.3 542.109 318.64C542.109 323 543.829 325.16 546.009 325.16ZM559.762 317.86C560.342 317.3 561.162 316.98 562.182 316.98C563.902 316.98 565.142 318.42 566.622 318.42C567.582 318.42 568.202 317.9 568.842 317.12V319.14C568.262 319.84 567.482 320.26 566.422 320.26C564.702 320.26 563.462 318.82 561.962 318.82C561.022 318.82 560.382 319.2 559.762 319.86V317.86ZM582.211 327.02C578.771 327.02 576.651 324.94 576.531 322.14H578.611C578.671 323.86 579.951 325.2 582.211 325.2C584.451 325.2 585.791 323.92 585.791 322.32C585.791 320.52 584.351 319.46 581.931 319.46H580.171V317.72H581.931C583.971 317.72 585.351 316.56 585.351 314.9C585.351 313.34 584.111 312.06 581.991 312.06C579.831 312.06 578.651 313.58 578.651 315.28H576.551C576.551 312.46 578.711 310.26 581.991 310.26C585.291 310.26 587.431 312.32 587.431 314.84C587.431 316.8 586.051 318.16 584.571 318.52C586.191 318.82 587.851 320.08 587.851 322.3C587.851 324.98 585.571 327.02 582.211 327.02ZM591.535 328H589.455L596.775 309.3H598.855L591.535 328ZM603.699 326.66V312.48H600.379V310.64H605.799V326.66H603.699ZM609.502 326.66V325.3L615.182 319.6C617.222 317.54 618.022 316.24 618.022 315.1C618.022 313.22 616.742 312.12 614.742 312.12C612.582 312.12 611.422 313.76 611.422 315.54H609.322C609.322 312.64 611.422 310.26 614.762 310.26C617.982 310.26 620.102 312.2 620.102 315.08C620.102 316.8 619.122 318.26 616.722 320.72L612.522 324.84H620.642V326.66H609.502ZM547.24 369.02C543.8 369.02 541.68 366.94 541.56 364.14H543.64C543.7 365.86 544.98 367.2 547.24 367.2C549.48 367.2 550.82 365.92 550.82 364.32C550.82 362.52 549.38 361.46 546.96 361.46H545.2V359.72H546.96C549 359.72 550.38 358.56 550.38 356.9C550.38 355.34 549.14 354.06 547.02 354.06C544.86 354.06 543.68 355.58 543.68 357.28H541.58C541.58 354.46 543.74 352.26 547.02 352.26C550.32 352.26 552.46 354.32 552.46 356.84C552.46 358.8 551.08 360.16 549.6 360.52C551.22 360.82 552.88 362.08 552.88 364.3C552.88 366.98 550.6 369.02 547.24 369.02ZM556.564 370H554.484L561.804 351.3H563.884L556.564 370ZM568.728 368.66V354.48H565.408V352.64H570.828V368.66H568.728ZM582.151 368.66V365.04H574.071V363.26L581.671 352.64H584.151V363.26H586.771V365.04H584.151V368.66H582.151ZM576.231 363.26H582.151V354.94L576.231 363.26Z" fill="black"/>
<defs>
<filter id="filter0_d_343_185" x="421.87" y="423.997" width="92.861" height="111.143" filterUnits="userSpaceOnUse" color-interpolation-filters="sRGB">
<feFlood flood-opacity="0" result="BackgroundImageFix"/>
<feColorMatrix in="SourceAlpha" type="matrix" values="0 0 0 0 0 0 0 0 0 0 0 0 0 0 0 0 0 0 127 0" result="hardAlpha"/>
<feOffset dy="4"/>
<feGaussianBlur stdDeviation="2"/>
<feComposite in2="hardAlpha" operator="out"/>
<feColorMatrix type="matrix" values="0 0 0 0 0 0 0 0 0 0 0 0 0 0 0 0 0 0 0.25 0"/>
<feBlend mode="normal" in2="BackgroundImageFix" result="effect1_dropShadow_343_185"/>
<feBlend mode="normal" in="SourceGraphic" in2="effect1_dropShadow_343_185" result="shape"/>
</filter>
<filter id="filter1_d_343_185" x="379.94" y="482.545" width="111.435" height="57.8394" filterUnits="userSpaceOnUse" color-interpolation-filters="sRGB">
<feFlood flood-opacity="0" result="BackgroundImageFix"/>
<feColorMatrix in="SourceAlpha" type="matrix" values="0 0 0 0 0 0 0 0 0 0 0 0 0 0 0 0 0 0 127 0" result="hardAlpha"/>
<feOffset dy="4"/>
<feGaussianBlur stdDeviation="2"/>
<feComposite in2="hardAlpha" operator="out"/>
<feColorMatrix type="matrix" values="0 0 0 0 0 0 0 0 0 0 0 0 0 0 0 0 0 0 0.25 0"/>
<feBlend mode="normal" in2="BackgroundImageFix" result="effect1_dropShadow_343_185"/>
<feBlend mode="normal" in="SourceGraphic" in2="effect1_dropShadow_343_185" result="shape"/>
</filter>
<filter id="filter2_i_343_185" x="385.844" y="417.494" width="98.4225" height="95.5282" filterUnits="userSpaceOnUse" color-interpolation-filters="sRGB">
<feFlood flood-opacity="0" result="BackgroundImageFix"/>
<feBlend mode="normal" in="SourceGraphic" in2="BackgroundImageFix" result="shape"/>
<feColorMatrix in="SourceAlpha" type="matrix" values="0 0 0 0 0 0 0 0 0 0 0 0 0 0 0 0 0 0 127 0" result="hardAlpha"/>
<feOffset dy="4"/>
<feGaussianBlur stdDeviation="2"/>
<feComposite in2="hardAlpha" operator="arithmetic" k2="-1" k3="1"/>
<feColorMatrix type="matrix" values="0 0 0 0 0 0 0 0 0 0 0 0 0 0 0 0 0 0 0.25 0"/>
<feBlend mode="normal" in2="shape" result="effect1_innerShadow_343_185"/>
</filter>
<filter id="filter3_i_343_185" x="405.97" y="445.551" width="52.8111" height="38.545" filterUnits="userSpaceOnUse" color-interpolation-filters="sRGB">
<feFlood flood-opacity="0" result="BackgroundImageFix"/>
<feBlend mode="normal" in="SourceGraphic" in2="BackgroundImageFix" result="shape"/>
<feColorMatrix in="SourceAlpha" type="matrix" values="0 0 0 0 0 0 0 0 0 0 0 0 0 0 0 0 0 0 127 0" result="hardAlpha"/>
<feOffset dy="4"/>
<feGaussianBlur stdDeviation="2"/>
<feComposite in2="hardAlpha" operator="arithmetic" k2="-1" k3="1"/>
<feColorMatrix type="matrix" values="0 0 0 0 0 0 0 0 0 0 0 0 0 0 0 0 0 0 0.25 0"/>
<feBlend mode="normal" in2="shape" result="effect1_innerShadow_343_185"/>
</filter>
</defs>
</svg>
