<svg width="103" height="102" viewBox="0 0 103 102" fill="none" xmlns="http://www.w3.org/2000/svg">
<ellipse cx="80.1513" cy="83" rx="14.0265" ry="14" fill="#1C1B1A"/>
<mask id="path-2-inside-1_637_357" fill="white">
<path d="M68.6295 91C77.8355 86.7496 86.108 78.9803 90.4849 69.8473C94.8619 60.7143 95.9096 50.3434 93.4474 40.5222C90.9851 30.7009 85.1673 22.0447 76.9967 16.0455C68.8261 10.0464 58.8146 7.08027 48.688 7.65837C38.5613 8.23647 28.954 12.3226 21.522 19.2124C14.0899 26.1023 9.29887 35.3641 7.97462 45.4015C6.65037 55.4389 8.8759 65.623 14.2676 74.1983C19.6593 82.7736 28.9413 88.825 38.5728 92L39.0737 80.1471C31.9814 77.8091 27.968 74.4183 23.9977 68.1036C20.0274 61.789 18.3886 54.2897 19.3637 46.8985C20.3389 39.5072 23.8669 32.687 29.3396 27.6135C34.8124 22.54 41.8869 19.5311 49.3439 19.1054C56.8009 18.6797 64.1731 20.8639 70.1897 25.2815C76.2063 29.6991 80.4904 36.0733 82.3035 43.3054C84.1166 50.5375 83.3452 58.1744 80.1221 64.8997C76.899 71.6249 73.4048 76.3701 66.6257 79.5L66.1248 81L66.1248 82.5L66.1248 84C66.1248 84 66.1248 85.5 66.6257 85.5L66.3213 85.2347L66.6257 86.5L67.1267 88L67.6276 89L68.1286 90L68.379 90.5L68.6295 91Z"/>
</mask>
<path d="M56.6244 85.4934L56.6244 85.9934L76.6271 86.0066L76.6271 85.5066L56.6244 85.4934ZM68.6295 91L50.7456 99.9452L59.4294 117.28L77.026 109.156L68.6295 91ZM38.5728 92L32.3203 110.991L57.4413 119.272L58.5577 92.8574L38.5728 92ZM39.0737 80.1471L59.0586 81.0045L59.6973 65.8934L45.3263 61.156L39.0737 80.1471ZM66.6257 79.5L58.2293 61.3443L50.3877 64.9647L47.6522 73.1557L66.6257 79.5ZM66.6257 85.5L66.639 105.497L119.996 105.497L79.7652 70.4309L66.6257 85.5ZM66.1248 82.5L86.1275 82.5133L86.1275 82.5132L66.1248 82.5ZM67.1267 88L48.1539 94.3216L48.6049 95.672L49.2427 96.9451L67.1267 88ZM68.1286 90L86.0126 81.0548L86.0125 81.0548L68.1286 90ZM66.6257 86.5L47.1777 91.1639L47.3796 92.003L47.653 92.8216L66.6257 86.5ZM66.1248 81L47.1512 74.6557L46.1221 77.7373L46.1221 80.9868L66.1248 81ZM66.1248 84L86.1275 84.0133L86.1275 84.0133L66.1248 84ZM68.379 90.5L50.495 99.4452L50.4951 99.4452L68.379 90.5ZM67.6276 89L49.7436 97.9451L49.7436 97.9452L67.6276 89ZM66.3213 85.2347L79.4608 70.1656L32.2205 28.9895L46.8733 89.8986L66.3213 85.2347ZM77.026 109.156C90.1098 103.115 101.98 92.1556 108.525 78.4975L72.4448 61.1971C70.2364 65.805 65.5613 70.3842 60.2331 72.8443L77.026 109.156ZM108.525 78.4975C114.915 65.1648 116.446 50.0191 112.85 35.6726L74.045 45.3717C75.3727 50.6677 74.809 56.2639 72.4448 61.1971L108.525 78.4975ZM112.85 35.6726C109.253 21.3262 100.756 8.68705 88.8302 -0.0691647L65.1633 32.1603C69.5788 35.4023 72.7172 40.0756 74.045 45.3717L112.85 35.6726ZM88.8302 -0.0691647C76.9053 -8.82479 62.3005 -13.1493 47.5344 -12.3064L49.8415 27.6231C55.3287 27.3099 60.7469 28.9176 65.1633 32.1603L88.8302 -0.0691647ZM47.5344 -12.3064C32.7686 -11.4635 18.7575 -5.50563 7.91589 4.54508L35.128 33.8798C39.1504 30.1508 44.3541 27.9364 49.8415 27.6231L47.5344 -12.3064ZM7.91589 4.54508C-2.92641 14.5964 -9.92237 28.1145 -11.8564 42.7737L27.8056 48.0294C28.5201 42.6137 31.1063 37.6081 35.128 33.8798L7.91589 4.54508ZM-11.8564 42.7737C-13.7905 57.4335 -10.5397 72.3085 -2.66541 84.8323L31.2006 63.5643C28.2915 58.9375 27.0912 53.4444 27.8056 48.0294L-11.8564 42.7737ZM-2.66541 84.8323C5.86122 98.3936 19.5962 106.797 32.3203 110.991L44.8253 73.0089C38.2864 70.8534 33.4574 67.1536 31.2006 63.5643L-2.66541 84.8323ZM58.5577 92.8574L59.0586 81.0045L19.0889 79.2897L18.5879 91.1426L58.5577 92.8574ZM45.3263 61.156C43.5247 60.5621 43.0372 60.1522 42.9371 60.0712C42.78 59.9442 42.1563 59.4189 40.9307 57.4696L7.06469 78.7376C9.80937 83.1029 13.1775 87.4304 17.7928 91.162C22.465 94.9396 27.5304 97.3941 32.8212 99.1382L45.3263 61.156ZM40.9307 57.4696C39.443 55.1035 38.8294 52.2952 39.1947 49.5263L-0.467274 44.2706C-2.05225 56.2843 0.611799 68.4745 7.06469 78.7376L40.9307 57.4696ZM39.1947 49.5263C39.5601 46.7568 40.8832 44.1929 42.9457 42.2809L15.7335 12.9462C6.85053 21.1811 1.11762 32.2576 -0.467274 44.2706L39.1947 49.5263ZM42.9457 42.2809C45.0088 40.3683 47.6797 39.231 50.4975 39.0702L48.1904 -0.859353C36.0942 -0.168819 24.6159 4.71179 15.7335 12.9462L42.9457 42.2809ZM50.4975 39.0702C53.315 38.9093 56.0939 39.7351 58.3563 41.3962L82.0232 9.16679C72.2523 1.9927 60.2868 -1.5499 48.1904 -0.859353L50.4975 39.0702ZM58.3563 41.3962C60.6178 43.0567 62.2225 45.448 62.9011 48.1549L101.706 38.4559C98.7583 26.6986 91.7948 16.3415 82.0232 9.16679L58.3563 41.3962ZM62.9011 48.1549C63.5797 50.8618 63.2922 53.7239 62.0819 56.2494L98.1623 73.5499C103.398 62.6248 104.654 50.2132 101.706 38.4559L62.9011 48.1549ZM62.0819 56.2494C60.8491 58.8219 60.0939 59.8687 59.6726 60.3484C59.4237 60.6318 59.1295 60.9286 58.2293 61.3443L75.0222 97.6557C87.6879 91.808 93.8965 82.4509 98.1623 73.5499L62.0819 56.2494ZM47.653 92.8216L48.1539 94.3216L86.0994 81.6784L85.5985 80.1784L47.653 92.8216ZM47.6522 73.1557L47.1512 74.6557L85.0984 87.3442L85.5993 85.8443L47.6522 73.1557ZM46.1221 80.9868L46.1221 82.4868L86.1275 82.5132L86.1275 81.0132L46.1221 80.9868ZM46.1221 82.4867L46.1221 83.9867L86.1275 84.0133L86.1275 82.5133L46.1221 82.4867ZM66.1248 84C46.1221 83.9867 46.1221 83.99 46.1221 83.9933C46.1221 83.9944 46.1221 83.9977 46.1221 83.9999C46.1221 84.0043 46.1221 84.0088 46.1221 84.0133C46.1221 84.0223 46.1221 84.0315 46.1221 84.0408C46.1222 84.0595 46.1223 84.0788 46.1224 84.0987C46.1226 84.1386 46.1229 84.1811 46.1234 84.2261C46.1244 84.3159 46.1261 84.417 46.1287 84.528C46.134 84.747 46.1434 85.0196 46.1608 85.3322C46.1919 85.8918 46.2634 86.8662 46.4578 88.03C46.5969 88.8629 47.0375 91.3868 48.4521 94.2108C49.4825 96.2677 54.7158 105.497 66.639 105.497L66.6125 65.5027C72.034 65.5027 76.4629 67.6816 79.46 70.2457C82.1422 72.5404 83.558 74.9987 84.2201 76.3205C85.4939 78.8632 85.8406 81.0121 85.917 81.47C86.0488 82.2588 86.0889 82.8581 86.1044 83.1365C86.114 83.3085 86.1195 83.4639 86.1228 83.6009C86.1245 83.6709 86.1256 83.7397 86.1264 83.8076C86.1268 83.8416 86.127 83.8757 86.1272 83.9099C86.1273 83.927 86.1274 83.9441 86.1274 83.9614C86.1275 83.97 86.1275 83.9786 86.1275 83.9873C86.1275 83.9916 86.1275 83.9959 86.1275 84.0002C86.1275 84.0024 86.1275 84.0057 86.1275 84.0067C86.1275 84.01 86.1275 84.0133 66.1248 84ZM50.2446 98.9452L50.495 99.4452L86.263 81.5548L86.0126 81.0548L50.2446 98.9452ZM50.4951 99.4452L50.7456 99.9452L86.5135 82.0548L86.263 81.5548L50.4951 99.4452ZM49.2427 96.9451L49.7436 97.9451L85.5116 80.0549L85.0107 79.0549L49.2427 96.9451ZM49.7436 97.9452L50.2446 98.9452L86.0125 81.0548L85.5116 80.0548L49.7436 97.9452ZM79.7652 70.4309L79.4608 70.1656L53.1819 100.304L53.4863 100.569L79.7652 70.4309ZM46.8733 89.8986L47.1777 91.1639L86.0737 81.8361L85.7693 80.5708L46.8733 89.8986Z" fill="#989595" mask="url(#path-2-inside-1_637_357)"/>
</svg>
